<?xml version="1.0" encoding="us-ascii" standalone="no"?><svg xmlns="http://www.w3.org/2000/svg" xmlns:xlink="http://www.w3.org/1999/xlink" contentStyleType="text/css" height="636px" preserveAspectRatio="none" style="width:1468px;height:636px;background:#FFFFFF;" version="1.1" viewBox="0 0 1468 636" width="1468px" zoomAndPan="magnify"><defs/><g><!--class OrdemServi?o--><g id="elem_OrdemServi&#231;o"><rect codeLine="1" fill="#F1F1F1" height="178.375" id="OrdemServi&#231;o" rx="2.5" ry="2.5" style="stroke:#181818;stroke-width:0.5;" width="179" x="519.5" y="7"/><ellipse cx="554.75" cy="23" fill="#ADD1B2" rx="11" ry="11" style="stroke:#181818;stroke-width:1.0;"/><path d="M553.5469,23.875 L555,23.875 L555,23.9844 C555,24.3906 555.0313,24.5469 555.1094,24.7031 C555.2656,24.9531 555.5469,25.1094 555.8438,25.1094 C556.0938,25.1094 556.3594,24.9688 556.5156,24.75 C556.6406,24.5938 556.6719,24.4375 556.6719,23.9844 L556.6719,22.0625 C556.6719,21.9063 556.6719,21.8594 556.6563,21.7031 C556.5938,21.2344 556.2813,20.9219 555.8281,20.9219 C555.5781,20.9219 555.3125,21.0625 555.1406,21.2813 C555.0313,21.4531 555,21.6094 555,22.0625 L555,22.1875 L553.5469,22.1875 L553.5469,19.7813 L557.5313,19.7813 L557.5313,20.6406 C557.5313,21.0469 557.5625,21.2188 557.6406,21.375 C557.8125,21.625 558.0938,21.7813 558.375,21.7813 C558.6406,21.7813 558.9063,21.6406 559.0781,21.4219 C559.1875,21.25 559.2188,21.1094 559.2188,20.6406 L559.2188,18.0938 L551.5938,18.0938 C551.1563,18.0938 551.0313,18.1094 550.875,18.2031 C550.625,18.3594 550.4688,18.6563 550.4688,18.9375 C550.4688,19.2188 550.6094,19.4688 550.8281,19.6406 C550.9844,19.75 551.1719,19.7813 551.5938,19.7813 L551.8438,19.7813 L551.8438,26.2969 L551.5938,26.2969 C551.1875,26.2969 551.0313,26.3125 550.875,26.4219 C550.625,26.5938 550.4688,26.8594 550.4688,27.1563 C550.4688,27.4219 550.6094,27.6719 550.8281,27.8281 C550.9688,27.9531 551.2031,28 551.5938,28 L559.5938,28 L559.5938,25.4219 C559.5938,24.9844 559.5625,24.8438 559.4844,24.6875 C559.3125,24.4375 559.0313,24.2813 558.75,24.2813 C558.4844,24.2813 558.2188,24.3906 558.0469,24.6406 C557.9375,24.7969 557.9063,24.9375 557.9063,25.4219 L557.9063,26.2969 L553.5469,26.2969 L553.5469,23.875 Z " fill="#000000"/><text fill="#000000" font-family="sans-serif" font-size="14" lengthAdjust="spacing" textLength="102" x="573.25" y="27.8467">OrdemServi&#231;o</text><line style="stroke:#181818;stroke-width:0.5;" x1="520.5" x2="697.5" y1="39" y2="39"/><ellipse cx="530.5" cy="52.6484" fill="none" rx="3" ry="3" style="stroke:#038048;stroke-width:1.0;"/><text fill="#000000" font-family="sans-serif" font-size="14" lengthAdjust="spacing" textLength="54" x="539.5" y="55.9951">ID &#171;PK&#187;</text><ellipse cx="530.5" cy="68.9453" fill="none" rx="3" ry="3" style="stroke:#038048;stroke-width:1.0;"/><text fill="#000000" font-family="sans-serif" font-size="14" lengthAdjust="spacing" textLength="124" x="539.5" y="72.292">Data de Abertura</text><ellipse cx="530.5" cy="85.2422" fill="none" rx="3" ry="3" style="stroke:#038048;stroke-width:1.0;"/><text fill="#000000" font-family="sans-serif" font-size="14" lengthAdjust="spacing" textLength="40" x="539.5" y="88.5889">Prazo</text><ellipse cx="530.5" cy="101.5391" fill="none" rx="3" ry="3" style="stroke:#038048;stroke-width:1.0;"/><text fill="#000000" font-family="sans-serif" font-size="14" lengthAdjust="spacing" textLength="153" x="539.5" y="104.8857">Forma de Pagamento</text><ellipse cx="530.5" cy="117.8359" fill="none" rx="3" ry="3" style="stroke:#038048;stroke-width:1.0;"/><text fill="#000000" font-family="sans-serif" font-size="14" lengthAdjust="spacing" textLength="46" x="539.5" y="121.1826">Status</text><ellipse cx="530.5" cy="134.1328" fill="none" rx="3" ry="3" style="stroke:#038048;stroke-width:1.0;"/><text fill="#000000" font-family="sans-serif" font-size="14" lengthAdjust="spacing" textLength="90" x="539.5" y="137.4795">Cliente &#171;FK&#187;</text><ellipse cx="530.5" cy="150.4297" fill="none" rx="3" ry="3" style="stroke:#038048;stroke-width:1.0;"/><text fill="#000000" font-family="sans-serif" font-size="14" lengthAdjust="spacing" textLength="94" x="539.5" y="153.7764">T&#233;cnico &#171;FK&#187;</text><ellipse cx="530.5" cy="166.7266" fill="none" rx="3" ry="3" style="stroke:#038048;stroke-width:1.0;"/><text fill="#000000" font-family="sans-serif" font-size="14" lengthAdjust="spacing" textLength="116" x="539.5" y="170.0732">Finaliza&#231;&#227;o &#171;FK&#187;</text><line style="stroke:#181818;stroke-width:0.5;" x1="520.5" x2="697.5" y1="177.375" y2="177.375"/></g><!--class Cliente--><g id="elem_Cliente"><rect codeLine="12" fill="#F1F1F1" height="162.0781" id="Cliente" rx="2.5" ry="2.5" style="stroke:#181818;stroke-width:0.5;" width="94" x="7" y="245"/><ellipse cx="26.5" cy="261" fill="#ADD1B2" rx="11" ry="11" style="stroke:#181818;stroke-width:1.0;"/><path d="M25.2969,261.875 L26.75,261.875 L26.75,261.9844 C26.75,262.3906 26.7813,262.5469 26.8594,262.7031 C27.0156,262.9531 27.2969,263.1094 27.5938,263.1094 C27.8438,263.1094 28.1094,262.9688 28.2656,262.75 C28.3906,262.5938 28.4219,262.4375 28.4219,261.9844 L28.4219,260.0625 C28.4219,259.9063 28.4219,259.8594 28.4063,259.7031 C28.3438,259.2344 28.0313,258.9219 27.5781,258.9219 C27.3281,258.9219 27.0625,259.0625 26.8906,259.2813 C26.7813,259.4531 26.75,259.6094 26.75,260.0625 L26.75,260.1875 L25.2969,260.1875 L25.2969,257.7813 L29.2813,257.7813 L29.2813,258.6406 C29.2813,259.0469 29.3125,259.2188 29.3906,259.375 C29.5625,259.625 29.8438,259.7813 30.125,259.7813 C30.3906,259.7813 30.6563,259.6406 30.8281,259.4219 C30.9375,259.25 30.9688,259.1094 30.9688,258.6406 L30.9688,256.0938 L23.3438,256.0938 C22.9063,256.0938 22.7813,256.1094 22.625,256.2031 C22.375,256.3594 22.2188,256.6563 22.2188,256.9375 C22.2188,257.2188 22.3594,257.4688 22.5781,257.6406 C22.7344,257.75 22.9219,257.7813 23.3438,257.7813 L23.5938,257.7813 L23.5938,264.2969 L23.3438,264.2969 C22.9375,264.2969 22.7813,264.3125 22.625,264.4219 C22.375,264.5938 22.2188,264.8594 22.2188,265.1563 C22.2188,265.4219 22.3594,265.6719 22.5781,265.8281 C22.7188,265.9531 22.9531,266 23.3438,266 L31.3438,266 L31.3438,263.4219 C31.3438,262.9844 31.3125,262.8438 31.2344,262.6875 C31.0625,262.4375 30.7813,262.2813 30.5,262.2813 C30.2344,262.2813 29.9688,262.3906 29.7969,262.6406 C29.6875,262.7969 29.6563,262.9375 29.6563,263.4219 L29.6563,264.2969 L25.2969,264.2969 L25.2969,261.875 Z " fill="#000000"/><text fill="#000000" font-family="sans-serif" font-size="14" lengthAdjust="spacing" textLength="52" x="41.5" y="265.8467">Cliente</text><line style="stroke:#181818;stroke-width:0.5;" x1="8" x2="100" y1="277" y2="277"/><ellipse cx="18" cy="290.6484" fill="none" rx="3" ry="3" style="stroke:#038048;stroke-width:1.0;"/><text fill="#000000" font-family="sans-serif" font-size="14" lengthAdjust="spacing" textLength="54" x="27" y="293.9951">ID &#171;PK&#187;</text><ellipse cx="18" cy="306.9453" fill="none" rx="3" ry="3" style="stroke:#038048;stroke-width:1.0;"/><text fill="#000000" font-family="sans-serif" font-size="14" lengthAdjust="spacing" textLength="27" x="27" y="310.292">CPF</text><ellipse cx="18" cy="323.2422" fill="none" rx="3" ry="3" style="stroke:#038048;stroke-width:1.0;"/><text fill="#000000" font-family="sans-serif" font-size="14" lengthAdjust="spacing" textLength="33" x="27" y="326.5889">CNPJ</text><ellipse cx="18" cy="339.5391" fill="none" rx="3" ry="3" style="stroke:#038048;stroke-width:1.0;"/><text fill="#000000" font-family="sans-serif" font-size="14" lengthAdjust="spacing" textLength="42" x="27" y="342.8857">Nome</text><ellipse cx="18" cy="355.8359" fill="none" rx="3" ry="3" style="stroke:#038048;stroke-width:1.0;"/><text fill="#000000" font-family="sans-serif" font-size="14" lengthAdjust="spacing" textLength="64" x="27" y="359.1826">Telefone</text><ellipse cx="18" cy="372.1328" fill="none" rx="3" ry="3" style="stroke:#038048;stroke-width:1.0;"/><text fill="#000000" font-family="sans-serif" font-size="14" lengthAdjust="spacing" textLength="39" x="27" y="375.4795">Email</text><ellipse cx="18" cy="388.4297" fill="none" rx="3" ry="3" style="stroke:#038048;stroke-width:1.0;"/><text fill="#000000" font-family="sans-serif" font-size="14" lengthAdjust="spacing" textLength="68" x="27" y="391.7764">Endere&#231;o</text><line style="stroke:#181818;stroke-width:0.5;" x1="8" x2="100" y1="399.0781" y2="399.0781"/></g><!--class T?cnico--><g id="elem_T&#233;cnico"><rect codeLine="22" fill="#F1F1F1" height="129.4844" id="T&#233;cnico" rx="2.5" ry="2.5" style="stroke:#181818;stroke-width:0.5;" width="124" x="136" y="261.5"/><ellipse cx="167.2" cy="277.5" fill="#ADD1B2" rx="11" ry="11" style="stroke:#181818;stroke-width:1.0;"/><path d="M165.9969,278.375 L167.45,278.375 L167.45,278.4844 C167.45,278.8906 167.4813,279.0469 167.5594,279.2031 C167.7156,279.4531 167.9969,279.6094 168.2938,279.6094 C168.5438,279.6094 168.8094,279.4688 168.9656,279.25 C169.0906,279.0938 169.1219,278.9375 169.1219,278.4844 L169.1219,276.5625 C169.1219,276.4063 169.1219,276.3594 169.1063,276.2031 C169.0438,275.7344 168.7313,275.4219 168.2781,275.4219 C168.0281,275.4219 167.7625,275.5625 167.5906,275.7813 C167.4813,275.9531 167.45,276.1094 167.45,276.5625 L167.45,276.6875 L165.9969,276.6875 L165.9969,274.2813 L169.9813,274.2813 L169.9813,275.1406 C169.9813,275.5469 170.0125,275.7188 170.0906,275.875 C170.2625,276.125 170.5438,276.2813 170.825,276.2813 C171.0906,276.2813 171.3563,276.1406 171.5281,275.9219 C171.6375,275.75 171.6688,275.6094 171.6688,275.1406 L171.6688,272.5938 L164.0438,272.5938 C163.6063,272.5938 163.4813,272.6094 163.325,272.7031 C163.075,272.8594 162.9188,273.1563 162.9188,273.4375 C162.9188,273.7188 163.0594,273.9688 163.2781,274.1406 C163.4344,274.25 163.6219,274.2813 164.0438,274.2813 L164.2938,274.2813 L164.2938,280.7969 L164.0438,280.7969 C163.6375,280.7969 163.4813,280.8125 163.325,280.9219 C163.075,281.0938 162.9188,281.3594 162.9188,281.6563 C162.9188,281.9219 163.0594,282.1719 163.2781,282.3281 C163.4188,282.4531 163.6531,282.5 164.0438,282.5 L172.0438,282.5 L172.0438,279.9219 C172.0438,279.4844 172.0125,279.3438 171.9344,279.1875 C171.7625,278.9375 171.4813,278.7813 171.2,278.7813 C170.9344,278.7813 170.6688,278.8906 170.4969,279.1406 C170.3875,279.2969 170.3563,279.4375 170.3563,279.9219 L170.3563,280.7969 L165.9969,280.7969 L165.9969,278.375 Z " fill="#000000"/><text fill="#000000" font-family="sans-serif" font-size="14" lengthAdjust="spacing" textLength="56" x="184.8" y="282.3467">T&#233;cnico</text><line style="stroke:#181818;stroke-width:0.5;" x1="137" x2="259" y1="293.5" y2="293.5"/><ellipse cx="147" cy="307.1484" fill="none" rx="3" ry="3" style="stroke:#038048;stroke-width:1.0;"/><text fill="#000000" font-family="sans-serif" font-size="14" lengthAdjust="spacing" textLength="54" x="156" y="310.4951">ID &#171;PK&#187;</text><ellipse cx="147" cy="323.4453" fill="none" rx="3" ry="3" style="stroke:#038048;stroke-width:1.0;"/><text fill="#000000" font-family="sans-serif" font-size="14" lengthAdjust="spacing" textLength="42" x="156" y="326.792">Nome</text><ellipse cx="147" cy="339.7422" fill="none" rx="3" ry="3" style="stroke:#038048;stroke-width:1.0;"/><text fill="#000000" font-family="sans-serif" font-size="14" lengthAdjust="spacing" textLength="98" x="156" y="343.0889">Especialidade</text><ellipse cx="147" cy="356.0391" fill="none" rx="3" ry="3" style="stroke:#038048;stroke-width:1.0;"/><text fill="#000000" font-family="sans-serif" font-size="14" lengthAdjust="spacing" textLength="64" x="156" y="359.3857">Telefone</text><ellipse cx="147" cy="372.3359" fill="none" rx="3" ry="3" style="stroke:#038048;stroke-width:1.0;"/><text fill="#000000" font-family="sans-serif" font-size="14" lengthAdjust="spacing" textLength="39" x="156" y="375.6826">Email</text><line style="stroke:#181818;stroke-width:0.5;" x1="137" x2="259" y1="382.9844" y2="382.9844"/></g><!--class Equipamento--><g id="elem_Equipamento"><rect codeLine="31" fill="#F1F1F1" height="162.0781" id="Equipamento" rx="2.5" ry="2.5" style="stroke:#181818;stroke-width:0.5;" width="157" x="530.5" y="467"/><ellipse cx="558.55" cy="483" fill="#ADD1B2" rx="11" ry="11" style="stroke:#181818;stroke-width:1.0;"/><path d="M557.3469,483.875 L558.8,483.875 L558.8,483.9844 C558.8,484.3906 558.8313,484.5469 558.9094,484.7031 C559.0656,484.9531 559.3469,485.1094 559.6438,485.1094 C559.8938,485.1094 560.1594,484.9688 560.3156,484.75 C560.4406,484.5938 560.4719,484.4375 560.4719,483.9844 L560.4719,482.0625 C560.4719,481.9063 560.4719,481.8594 560.4563,481.7031 C560.3938,481.2344 560.0813,480.9219 559.6281,480.9219 C559.3781,480.9219 559.1125,481.0625 558.9406,481.2813 C558.8313,481.4531 558.8,481.6094 558.8,482.0625 L558.8,482.1875 L557.3469,482.1875 L557.3469,479.7813 L561.3313,479.7813 L561.3313,480.6406 C561.3313,481.0469 561.3625,481.2188 561.4406,481.375 C561.6125,481.625 561.8938,481.7813 562.175,481.7813 C562.4406,481.7813 562.7063,481.6406 562.8781,481.4219 C562.9875,481.25 563.0188,481.1094 563.0188,480.6406 L563.0188,478.0938 L555.3938,478.0938 C554.9563,478.0938 554.8313,478.1094 554.675,478.2031 C554.425,478.3594 554.2688,478.6563 554.2688,478.9375 C554.2688,479.2188 554.4094,479.4688 554.6281,479.6406 C554.7844,479.75 554.9719,479.7813 555.3938,479.7813 L555.6438,479.7813 L555.6438,486.2969 L555.3938,486.2969 C554.9875,486.2969 554.8313,486.3125 554.675,486.4219 C554.425,486.5938 554.2688,486.8594 554.2688,487.1563 C554.2688,487.4219 554.4094,487.6719 554.6281,487.8281 C554.7688,487.9531 555.0031,488 555.3938,488 L563.3938,488 L563.3938,485.4219 C563.3938,484.9844 563.3625,484.8438 563.2844,484.6875 C563.1125,484.4375 562.8313,484.2813 562.55,484.2813 C562.2844,484.2813 562.0188,484.3906 561.8469,484.6406 C561.7375,484.7969 561.7063,484.9375 561.7063,485.4219 L561.7063,486.2969 L557.3469,486.2969 L557.3469,483.875 Z " fill="#000000"/><text fill="#000000" font-family="sans-serif" font-size="14" lengthAdjust="spacing" textLength="96" x="575.45" y="487.8467">Equipamento</text><line style="stroke:#181818;stroke-width:0.5;" x1="531.5" x2="686.5" y1="499" y2="499"/><ellipse cx="541.5" cy="512.6484" fill="none" rx="3" ry="3" style="stroke:#038048;stroke-width:1.0;"/><text fill="#000000" font-family="sans-serif" font-size="14" lengthAdjust="spacing" textLength="54" x="550.5" y="515.9951">ID &#171;PK&#187;</text><ellipse cx="541.5" cy="528.9453" fill="none" rx="3" ry="3" style="stroke:#038048;stroke-width:1.0;"/><text fill="#000000" font-family="sans-serif" font-size="14" lengthAdjust="spacing" textLength="32" x="550.5" y="532.292">Tipo</text><ellipse cx="541.5" cy="545.2422" fill="none" rx="3" ry="3" style="stroke:#038048;stroke-width:1.0;"/><text fill="#000000" font-family="sans-serif" font-size="14" lengthAdjust="spacing" textLength="42" x="550.5" y="548.5889">Marca</text><ellipse cx="541.5" cy="561.5391" fill="none" rx="3" ry="3" style="stroke:#038048;stroke-width:1.0;"/><text fill="#000000" font-family="sans-serif" font-size="14" lengthAdjust="spacing" textLength="52" x="550.5" y="564.8857">Modelo</text><ellipse cx="541.5" cy="577.8359" fill="none" rx="3" ry="3" style="stroke:#038048;stroke-width:1.0;"/><text fill="#000000" font-family="sans-serif" font-size="14" lengthAdjust="spacing" textLength="120" x="550.5" y="581.1826">Dados Adicionais</text><ellipse cx="541.5" cy="594.1328" fill="none" rx="3" ry="3" style="stroke:#038048;stroke-width:1.0;"/><text fill="#000000" font-family="sans-serif" font-size="14" lengthAdjust="spacing" textLength="131" x="550.5" y="597.4795">Defeito Declarado</text><ellipse cx="541.5" cy="610.4297" fill="none" rx="3" ry="3" style="stroke:#038048;stroke-width:1.0;"/><text fill="#000000" font-family="sans-serif" font-size="14" lengthAdjust="spacing" textLength="55" x="550.5" y="613.7764">Solu&#231;&#227;o</text><line style="stroke:#181818;stroke-width:0.5;" x1="531.5" x2="686.5" y1="621.0781" y2="621.0781"/></g><!--class Servi?o--><g id="elem_Servi&#231;o"><rect codeLine="41" fill="#F1F1F1" height="113.1875" id="Servi&#231;o" rx="2.5" ry="2.5" style="stroke:#181818;stroke-width:0.5;" width="96" x="815" y="491.5"/><ellipse cx="834.95" cy="507.5" fill="#ADD1B2" rx="11" ry="11" style="stroke:#181818;stroke-width:1.0;"/><path d="M833.7469,508.375 L835.2,508.375 L835.2,508.4844 C835.2,508.8906 835.2313,509.0469 835.3094,509.2031 C835.4656,509.4531 835.7469,509.6094 836.0438,509.6094 C836.2938,509.6094 836.5594,509.4688 836.7156,509.25 C836.8406,509.0938 836.8719,508.9375 836.8719,508.4844 L836.8719,506.5625 C836.8719,506.4063 836.8719,506.3594 836.8563,506.2031 C836.7938,505.7344 836.4813,505.4219 836.0281,505.4219 C835.7781,505.4219 835.5125,505.5625 835.3406,505.7813 C835.2313,505.9531 835.2,506.1094 835.2,506.5625 L835.2,506.6875 L833.7469,506.6875 L833.7469,504.2813 L837.7313,504.2813 L837.7313,505.1406 C837.7313,505.5469 837.7625,505.7188 837.8406,505.875 C838.0125,506.125 838.2938,506.2813 838.575,506.2813 C838.8406,506.2813 839.1063,506.1406 839.2781,505.9219 C839.3875,505.75 839.4188,505.6094 839.4188,505.1406 L839.4188,502.5938 L831.7938,502.5938 C831.3563,502.5938 831.2313,502.6094 831.075,502.7031 C830.825,502.8594 830.6688,503.1563 830.6688,503.4375 C830.6688,503.7188 830.8094,503.9688 831.0281,504.1406 C831.1844,504.25 831.3719,504.2813 831.7938,504.2813 L832.0438,504.2813 L832.0438,510.7969 L831.7938,510.7969 C831.3875,510.7969 831.2313,510.8125 831.075,510.9219 C830.825,511.0938 830.6688,511.3594 830.6688,511.6563 C830.6688,511.9219 830.8094,512.1719 831.0281,512.3281 C831.1688,512.4531 831.4031,512.5 831.7938,512.5 L839.7938,512.5 L839.7938,509.9219 C839.7938,509.4844 839.7625,509.3438 839.6844,509.1875 C839.5125,508.9375 839.2313,508.7813 838.95,508.7813 C838.6844,508.7813 838.4188,508.8906 838.2469,509.1406 C838.1375,509.2969 838.1063,509.4375 838.1063,509.9219 L838.1063,510.7969 L833.7469,510.7969 L833.7469,508.375 Z " fill="#000000"/><text fill="#000000" font-family="sans-serif" font-size="14" lengthAdjust="spacing" textLength="53" x="850.05" y="512.3467">Servi&#231;o</text><line style="stroke:#181818;stroke-width:0.5;" x1="816" x2="910" y1="523.5" y2="523.5"/><ellipse cx="826" cy="537.1484" fill="none" rx="3" ry="3" style="stroke:#038048;stroke-width:1.0;"/><text fill="#000000" font-family="sans-serif" font-size="14" lengthAdjust="spacing" textLength="54" x="835" y="540.4951">ID &#171;PK&#187;</text><ellipse cx="826" cy="553.4453" fill="none" rx="3" ry="3" style="stroke:#038048;stroke-width:1.0;"/><text fill="#000000" font-family="sans-serif" font-size="14" lengthAdjust="spacing" textLength="34" x="835" y="556.792">Data</text><ellipse cx="826" cy="569.7422" fill="none" rx="3" ry="3" style="stroke:#038048;stroke-width:1.0;"/><text fill="#000000" font-family="sans-serif" font-size="14" lengthAdjust="spacing" textLength="70" x="835" y="573.0889">Descri&#231;&#227;o</text><ellipse cx="826" cy="586.0391" fill="none" rx="3" ry="3" style="stroke:#038048;stroke-width:1.0;"/><text fill="#000000" font-family="sans-serif" font-size="14" lengthAdjust="spacing" textLength="37" x="835" y="589.3857">Valor</text><line style="stroke:#181818;stroke-width:0.5;" x1="816" x2="910" y1="596.6875" y2="596.6875"/></g><!--class Ocorr?ncia--><g id="elem_Ocorr&#234;ncia"><rect codeLine="48" fill="#F1F1F1" height="113.1875" id="Ocorr&#234;ncia" rx="2.5" ry="2.5" style="stroke:#181818;stroke-width:0.5;" width="110" x="1053" y="491.5"/><ellipse cx="1068" cy="507.5" fill="#ADD1B2" rx="11" ry="11" style="stroke:#181818;stroke-width:1.0;"/><path d="M1066.7969,508.375 L1068.25,508.375 L1068.25,508.4844 C1068.25,508.8906 1068.2813,509.0469 1068.3594,509.2031 C1068.5156,509.4531 1068.7969,509.6094 1069.0938,509.6094 C1069.3438,509.6094 1069.6094,509.4688 1069.7656,509.25 C1069.8906,509.0938 1069.9219,508.9375 1069.9219,508.4844 L1069.9219,506.5625 C1069.9219,506.4063 1069.9219,506.3594 1069.9063,506.2031 C1069.8438,505.7344 1069.5313,505.4219 1069.0781,505.4219 C1068.8281,505.4219 1068.5625,505.5625 1068.3906,505.7813 C1068.2813,505.9531 1068.25,506.1094 1068.25,506.5625 L1068.25,506.6875 L1066.7969,506.6875 L1066.7969,504.2813 L1070.7813,504.2813 L1070.7813,505.1406 C1070.7813,505.5469 1070.8125,505.7188 1070.8906,505.875 C1071.0625,506.125 1071.3438,506.2813 1071.625,506.2813 C1071.8906,506.2813 1072.1563,506.1406 1072.3281,505.9219 C1072.4375,505.75 1072.4688,505.6094 1072.4688,505.1406 L1072.4688,502.5938 L1064.8438,502.5938 C1064.4063,502.5938 1064.2813,502.6094 1064.125,502.7031 C1063.875,502.8594 1063.7188,503.1563 1063.7188,503.4375 C1063.7188,503.7188 1063.8594,503.9688 1064.0781,504.1406 C1064.2344,504.25 1064.4219,504.2813 1064.8438,504.2813 L1065.0938,504.2813 L1065.0938,510.7969 L1064.8438,510.7969 C1064.4375,510.7969 1064.2813,510.8125 1064.125,510.9219 C1063.875,511.0938 1063.7188,511.3594 1063.7188,511.6563 C1063.7188,511.9219 1063.8594,512.1719 1064.0781,512.3281 C1064.2188,512.4531 1064.4531,512.5 1064.8438,512.5 L1072.8438,512.5 L1072.8438,509.9219 C1072.8438,509.4844 1072.8125,509.3438 1072.7344,509.1875 C1072.5625,508.9375 1072.2813,508.7813 1072,508.7813 C1071.7344,508.7813 1071.4688,508.8906 1071.2969,509.1406 C1071.1875,509.2969 1071.1563,509.4375 1071.1563,509.9219 L1071.1563,510.7969 L1066.7969,510.7969 L1066.7969,508.375 Z " fill="#000000"/><text fill="#000000" font-family="sans-serif" font-size="14" lengthAdjust="spacing" textLength="78" x="1082" y="512.3467">Ocorr&#234;ncia</text><line style="stroke:#181818;stroke-width:0.5;" x1="1054" x2="1162" y1="523.5" y2="523.5"/><ellipse cx="1064" cy="537.1484" fill="none" rx="3" ry="3" style="stroke:#038048;stroke-width:1.0;"/><text fill="#000000" font-family="sans-serif" font-size="14" lengthAdjust="spacing" textLength="54" x="1073" y="540.4951">ID &#171;PK&#187;</text><ellipse cx="1064" cy="553.4453" fill="none" rx="3" ry="3" style="stroke:#038048;stroke-width:1.0;"/><text fill="#000000" font-family="sans-serif" font-size="14" lengthAdjust="spacing" textLength="70" x="1073" y="556.792">Descri&#231;&#227;o</text><ellipse cx="1064" cy="569.7422" fill="none" rx="3" ry="3" style="stroke:#038048;stroke-width:1.0;"/><text fill="#000000" font-family="sans-serif" font-size="14" lengthAdjust="spacing" textLength="61" x="1073" y="573.0889">Situa&#231;&#227;o</text><ellipse cx="1064" cy="586.0391" fill="none" rx="3" ry="3" style="stroke:#038048;stroke-width:1.0;"/><text fill="#000000" font-family="sans-serif" font-size="14" lengthAdjust="spacing" textLength="84" x="1073" y="589.3857">Data e Hora</text><line style="stroke:#181818;stroke-width:0.5;" x1="1054" x2="1162" y1="596.6875" y2="596.6875"/></g><!--class Pe?a--><g id="elem_Pe&#231;a"><rect codeLine="56" fill="#F1F1F1" height="113.1875" id="Pe&#231;a" rx="2.5" ry="2.5" style="stroke:#181818;stroke-width:0.5;" width="96" x="1307" y="491.5"/><ellipse cx="1335.5" cy="507.5" fill="#ADD1B2" rx="11" ry="11" style="stroke:#181818;stroke-width:1.0;"/><path d="M1334.2969,508.375 L1335.75,508.375 L1335.75,508.4844 C1335.75,508.8906 1335.7813,509.0469 1335.8594,509.2031 C1336.0156,509.4531 1336.2969,509.6094 1336.5938,509.6094 C1336.8438,509.6094 1337.1094,509.4688 1337.2656,509.25 C1337.3906,509.0938 1337.4219,508.9375 1337.4219,508.4844 L1337.4219,506.5625 C1337.4219,506.4063 1337.4219,506.3594 1337.4063,506.2031 C1337.3438,505.7344 1337.0313,505.4219 1336.5781,505.4219 C1336.3281,505.4219 1336.0625,505.5625 1335.8906,505.7813 C1335.7813,505.9531 1335.75,506.1094 1335.75,506.5625 L1335.75,506.6875 L1334.2969,506.6875 L1334.2969,504.2813 L1338.2813,504.2813 L1338.2813,505.1406 C1338.2813,505.5469 1338.3125,505.7188 1338.3906,505.875 C1338.5625,506.125 1338.8438,506.2813 1339.125,506.2813 C1339.3906,506.2813 1339.6563,506.1406 1339.8281,505.9219 C1339.9375,505.75 1339.9688,505.6094 1339.9688,505.1406 L1339.9688,502.5938 L1332.3438,502.5938 C1331.9063,502.5938 1331.7813,502.6094 1331.625,502.7031 C1331.375,502.8594 1331.2188,503.1563 1331.2188,503.4375 C1331.2188,503.7188 1331.3594,503.9688 1331.5781,504.1406 C1331.7344,504.25 1331.9219,504.2813 1332.3438,504.2813 L1332.5938,504.2813 L1332.5938,510.7969 L1332.3438,510.7969 C1331.9375,510.7969 1331.7813,510.8125 1331.625,510.9219 C1331.375,511.0938 1331.2188,511.3594 1331.2188,511.6563 C1331.2188,511.9219 1331.3594,512.1719 1331.5781,512.3281 C1331.7188,512.4531 1331.9531,512.5 1332.3438,512.5 L1340.3438,512.5 L1340.3438,509.9219 C1340.3438,509.4844 1340.3125,509.3438 1340.2344,509.1875 C1340.0625,508.9375 1339.7813,508.7813 1339.5,508.7813 C1339.2344,508.7813 1338.9688,508.8906 1338.7969,509.1406 C1338.6875,509.2969 1338.6563,509.4375 1338.6563,509.9219 L1338.6563,510.7969 L1334.2969,510.7969 L1334.2969,508.375 Z " fill="#000000"/><text fill="#000000" font-family="sans-serif" font-size="14" lengthAdjust="spacing" textLength="34" x="1352.5" y="512.3467">Pe&#231;a</text><line style="stroke:#181818;stroke-width:0.5;" x1="1308" x2="1402" y1="523.5" y2="523.5"/><ellipse cx="1318" cy="537.1484" fill="none" rx="3" ry="3" style="stroke:#038048;stroke-width:1.0;"/><text fill="#000000" font-family="sans-serif" font-size="14" lengthAdjust="spacing" textLength="54" x="1327" y="540.4951">ID &#171;PK&#187;</text><ellipse cx="1318" cy="553.4453" fill="none" rx="3" ry="3" style="stroke:#038048;stroke-width:1.0;"/><text fill="#000000" font-family="sans-serif" font-size="14" lengthAdjust="spacing" textLength="32" x="1327" y="556.792">Tipo</text><ellipse cx="1318" cy="569.7422" fill="none" rx="3" ry="3" style="stroke:#038048;stroke-width:1.0;"/><text fill="#000000" font-family="sans-serif" font-size="14" lengthAdjust="spacing" textLength="70" x="1327" y="573.0889">Descri&#231;&#227;o</text><ellipse cx="1318" cy="586.0391" fill="none" rx="3" ry="3" style="stroke:#038048;stroke-width:1.0;"/><text fill="#000000" font-family="sans-serif" font-size="14" lengthAdjust="spacing" textLength="37" x="1327" y="589.3857">Valor</text><line style="stroke:#181818;stroke-width:0.5;" x1="1308" x2="1402" y1="596.6875" y2="596.6875"/></g><!--class Finaliza??o--><g id="elem_Finaliza&#231;&#227;o"><rect codeLine="63" fill="#F1F1F1" height="96.8906" id="Finaliza&#231;&#227;o" rx="2.5" ry="2.5" style="stroke:#181818;stroke-width:0.5;" width="164" x="295" y="277.5"/><ellipse cx="334.3" cy="293.5" fill="#ADD1B2" rx="11" ry="11" style="stroke:#181818;stroke-width:1.0;"/><path d="M333.0969,294.375 L334.55,294.375 L334.55,294.4844 C334.55,294.8906 334.5813,295.0469 334.6594,295.2031 C334.8156,295.4531 335.0969,295.6094 335.3938,295.6094 C335.6438,295.6094 335.9094,295.4688 336.0656,295.25 C336.1906,295.0938 336.2219,294.9375 336.2219,294.4844 L336.2219,292.5625 C336.2219,292.4063 336.2219,292.3594 336.2063,292.2031 C336.1438,291.7344 335.8313,291.4219 335.3781,291.4219 C335.1281,291.4219 334.8625,291.5625 334.6906,291.7813 C334.5813,291.9531 334.55,292.1094 334.55,292.5625 L334.55,292.6875 L333.0969,292.6875 L333.0969,290.2813 L337.0813,290.2813 L337.0813,291.1406 C337.0813,291.5469 337.1125,291.7188 337.1906,291.875 C337.3625,292.125 337.6438,292.2813 337.925,292.2813 C338.1906,292.2813 338.4563,292.1406 338.6281,291.9219 C338.7375,291.75 338.7688,291.6094 338.7688,291.1406 L338.7688,288.5938 L331.1438,288.5938 C330.7063,288.5938 330.5813,288.6094 330.425,288.7031 C330.175,288.8594 330.0188,289.1563 330.0188,289.4375 C330.0188,289.7188 330.1594,289.9688 330.3781,290.1406 C330.5344,290.25 330.7219,290.2813 331.1438,290.2813 L331.3938,290.2813 L331.3938,296.7969 L331.1438,296.7969 C330.7375,296.7969 330.5813,296.8125 330.425,296.9219 C330.175,297.0938 330.0188,297.3594 330.0188,297.6563 C330.0188,297.9219 330.1594,298.1719 330.3781,298.3281 C330.5188,298.4531 330.7531,298.5 331.1438,298.5 L339.1438,298.5 L339.1438,295.9219 C339.1438,295.4844 339.1125,295.3438 339.0344,295.1875 C338.8625,294.9375 338.5813,294.7813 338.3,294.7813 C338.0344,294.7813 337.7688,294.8906 337.5969,295.1406 C337.4875,295.2969 337.4563,295.4375 337.4563,295.9219 L337.4563,296.7969 L333.0969,296.7969 L333.0969,294.375 Z " fill="#000000"/><text fill="#000000" font-family="sans-serif" font-size="14" lengthAdjust="spacing" textLength="78" x="353.7" y="298.3467">Finaliza&#231;&#227;o</text><line style="stroke:#181818;stroke-width:0.5;" x1="296" x2="458" y1="309.5" y2="309.5"/><ellipse cx="306" cy="323.1484" fill="none" rx="3" ry="3" style="stroke:#038048;stroke-width:1.0;"/><text fill="#000000" font-family="sans-serif" font-size="14" lengthAdjust="spacing" textLength="54" x="315" y="326.4951">ID &#171;PK&#187;</text><ellipse cx="306" cy="339.4453" fill="none" rx="3" ry="3" style="stroke:#038048;stroke-width:1.0;"/><text fill="#000000" font-family="sans-serif" font-size="14" lengthAdjust="spacing" textLength="138" x="315" y="342.792">Data de Finaliza&#231;&#227;o</text><ellipse cx="306" cy="355.7422" fill="none" rx="3" ry="3" style="stroke:#038048;stroke-width:1.0;"/><text fill="#000000" font-family="sans-serif" font-size="14" lengthAdjust="spacing" textLength="85" x="315" y="359.0889">Coment&#225;rio</text><line style="stroke:#181818;stroke-width:0.5;" x1="296" x2="458" y1="366.3906" y2="366.3906"/></g><!--class OrdemServi?oEquipamento--><g id="elem_OrdemServi&#231;oEquipamento"><rect codeLine="69" fill="#F1F1F1" height="80.5938" id="OrdemServi&#231;oEquipamento" rx="2.5" ry="2.5" style="stroke:#181818;stroke-width:0.5;" width="230" x="494" y="285.5"/><ellipse cx="509" cy="301.5" fill="#ADD1B2" rx="11" ry="11" style="stroke:#181818;stroke-width:1.0;"/><path d="M507.7969,302.375 L509.25,302.375 L509.25,302.4844 C509.25,302.8906 509.2813,303.0469 509.3594,303.2031 C509.5156,303.4531 509.7969,303.6094 510.0938,303.6094 C510.3438,303.6094 510.6094,303.4688 510.7656,303.25 C510.8906,303.0938 510.9219,302.9375 510.9219,302.4844 L510.9219,300.5625 C510.9219,300.4063 510.9219,300.3594 510.9063,300.2031 C510.8438,299.7344 510.5313,299.4219 510.0781,299.4219 C509.8281,299.4219 509.5625,299.5625 509.3906,299.7813 C509.2813,299.9531 509.25,300.1094 509.25,300.5625 L509.25,300.6875 L507.7969,300.6875 L507.7969,298.2813 L511.7813,298.2813 L511.7813,299.1406 C511.7813,299.5469 511.8125,299.7188 511.8906,299.875 C512.0625,300.125 512.3438,300.2813 512.625,300.2813 C512.8906,300.2813 513.1563,300.1406 513.3281,299.9219 C513.4375,299.75 513.4688,299.6094 513.4688,299.1406 L513.4688,296.5938 L505.8438,296.5938 C505.4063,296.5938 505.2813,296.6094 505.125,296.7031 C504.875,296.8594 504.7188,297.1563 504.7188,297.4375 C504.7188,297.7188 504.8594,297.9688 505.0781,298.1406 C505.2344,298.25 505.4219,298.2813 505.8438,298.2813 L506.0938,298.2813 L506.0938,304.7969 L505.8438,304.7969 C505.4375,304.7969 505.2813,304.8125 505.125,304.9219 C504.875,305.0938 504.7188,305.3594 504.7188,305.6563 C504.7188,305.9219 504.8594,306.1719 505.0781,306.3281 C505.2188,306.4531 505.4531,306.5 505.8438,306.5 L513.8438,306.5 L513.8438,303.9219 C513.8438,303.4844 513.8125,303.3438 513.7344,303.1875 C513.5625,302.9375 513.2813,302.7813 513,302.7813 C512.7344,302.7813 512.4688,302.8906 512.2969,303.1406 C512.1875,303.2969 512.1563,303.4375 512.1563,303.9219 L512.1563,304.7969 L507.7969,304.7969 L507.7969,302.375 Z " fill="#000000"/><text fill="#000000" font-family="sans-serif" font-size="14" lengthAdjust="spacing" textLength="198" x="523" y="306.3467">OrdemServi&#231;oEquipamento</text><line style="stroke:#181818;stroke-width:0.5;" x1="495" x2="723" y1="317.5" y2="317.5"/><ellipse cx="505" cy="331.1484" fill="none" rx="3" ry="3" style="stroke:#038048;stroke-width:1.0;"/><text fill="#000000" font-family="sans-serif" font-size="14" lengthAdjust="spacing" textLength="182" x="514" y="334.4951">OrdemServi&#231;oID &#171;PK, FK&#187;</text><ellipse cx="505" cy="347.4453" fill="none" rx="3" ry="3" style="stroke:#038048;stroke-width:1.0;"/><text fill="#000000" font-family="sans-serif" font-size="14" lengthAdjust="spacing" textLength="176" x="514" y="350.792">EquipamentoID &#171;PK, FK&#187;</text><line style="stroke:#181818;stroke-width:0.5;" x1="495" x2="723" y1="358.0938" y2="358.0938"/></g><!--class OrdemServi?oServi?o--><g id="elem_OrdemServi&#231;oServi&#231;o"><rect codeLine="74" fill="#F1F1F1" height="80.5938" id="OrdemServi&#231;oServi&#231;o" rx="2.5" ry="2.5" style="stroke:#181818;stroke-width:0.5;" width="208" x="759" y="285.5"/><ellipse cx="783.45" cy="301.5" fill="#ADD1B2" rx="11" ry="11" style="stroke:#181818;stroke-width:1.0;"/><path d="M782.2469,302.375 L783.7,302.375 L783.7,302.4844 C783.7,302.8906 783.7313,303.0469 783.8094,303.2031 C783.9656,303.4531 784.2469,303.6094 784.5438,303.6094 C784.7938,303.6094 785.0594,303.4688 785.2156,303.25 C785.3406,303.0938 785.3719,302.9375 785.3719,302.4844 L785.3719,300.5625 C785.3719,300.4063 785.3719,300.3594 785.3563,300.2031 C785.2938,299.7344 784.9813,299.4219 784.5281,299.4219 C784.2781,299.4219 784.0125,299.5625 783.8406,299.7813 C783.7313,299.9531 783.7,300.1094 783.7,300.5625 L783.7,300.6875 L782.2469,300.6875 L782.2469,298.2813 L786.2313,298.2813 L786.2313,299.1406 C786.2313,299.5469 786.2625,299.7188 786.3406,299.875 C786.5125,300.125 786.7938,300.2813 787.075,300.2813 C787.3406,300.2813 787.6063,300.1406 787.7781,299.9219 C787.8875,299.75 787.9188,299.6094 787.9188,299.1406 L787.9188,296.5938 L780.2938,296.5938 C779.8563,296.5938 779.7313,296.6094 779.575,296.7031 C779.325,296.8594 779.1688,297.1563 779.1688,297.4375 C779.1688,297.7188 779.3094,297.9688 779.5281,298.1406 C779.6844,298.25 779.8719,298.2813 780.2938,298.2813 L780.5438,298.2813 L780.5438,304.7969 L780.2938,304.7969 C779.8875,304.7969 779.7313,304.8125 779.575,304.9219 C779.325,305.0938 779.1688,305.3594 779.1688,305.6563 C779.1688,305.9219 779.3094,306.1719 779.5281,306.3281 C779.6688,306.4531 779.9031,306.5 780.2938,306.5 L788.2938,306.5 L788.2938,303.9219 C788.2938,303.4844 788.2625,303.3438 788.1844,303.1875 C788.0125,302.9375 787.7313,302.7813 787.45,302.7813 C787.1844,302.7813 786.9188,302.8906 786.7469,303.1406 C786.6375,303.2969 786.6063,303.4375 786.6063,303.9219 L786.6063,304.7969 L782.2469,304.7969 L782.2469,302.375 Z " fill="#000000"/><text fill="#000000" font-family="sans-serif" font-size="14" lengthAdjust="spacing" textLength="155" x="799.55" y="306.3467">OrdemServi&#231;oServi&#231;o</text><line style="stroke:#181818;stroke-width:0.5;" x1="760" x2="966" y1="317.5" y2="317.5"/><ellipse cx="770" cy="331.1484" fill="none" rx="3" ry="3" style="stroke:#038048;stroke-width:1.0;"/><text fill="#000000" font-family="sans-serif" font-size="14" lengthAdjust="spacing" textLength="182" x="779" y="334.4951">OrdemServi&#231;oID &#171;PK, FK&#187;</text><ellipse cx="770" cy="347.4453" fill="none" rx="3" ry="3" style="stroke:#038048;stroke-width:1.0;"/><text fill="#000000" font-family="sans-serif" font-size="14" lengthAdjust="spacing" textLength="133" x="779" y="350.792">Servi&#231;oID &#171;PK, FK&#187;</text><line style="stroke:#181818;stroke-width:0.5;" x1="760" x2="966" y1="358.0938" y2="358.0938"/></g><!--class OrdemServi?oOcorr?ncia--><g id="elem_OrdemServi&#231;oOcorr&#234;ncia"><rect codeLine="79" fill="#F1F1F1" height="80.5938" id="OrdemServi&#231;oOcorr&#234;ncia" rx="2.5" ry="2.5" style="stroke:#181818;stroke-width:0.5;" width="212" x="1002" y="285.5"/><ellipse cx="1017" cy="301.5" fill="#ADD1B2" rx="11" ry="11" style="stroke:#181818;stroke-width:1.0;"/><path d="M1015.7969,302.375 L1017.25,302.375 L1017.25,302.4844 C1017.25,302.8906 1017.2813,303.0469 1017.3594,303.2031 C1017.5156,303.4531 1017.7969,303.6094 1018.0938,303.6094 C1018.3438,303.6094 1018.6094,303.4688 1018.7656,303.25 C1018.8906,303.0938 1018.9219,302.9375 1018.9219,302.4844 L1018.9219,300.5625 C1018.9219,300.4063 1018.9219,300.3594 1018.9063,300.2031 C1018.8438,299.7344 1018.5313,299.4219 1018.0781,299.4219 C1017.8281,299.4219 1017.5625,299.5625 1017.3906,299.7813 C1017.2813,299.9531 1017.25,300.1094 1017.25,300.5625 L1017.25,300.6875 L1015.7969,300.6875 L1015.7969,298.2813 L1019.7813,298.2813 L1019.7813,299.1406 C1019.7813,299.5469 1019.8125,299.7188 1019.8906,299.875 C1020.0625,300.125 1020.3438,300.2813 1020.625,300.2813 C1020.8906,300.2813 1021.1563,300.1406 1021.3281,299.9219 C1021.4375,299.75 1021.4688,299.6094 1021.4688,299.1406 L1021.4688,296.5938 L1013.8438,296.5938 C1013.4063,296.5938 1013.2813,296.6094 1013.125,296.7031 C1012.875,296.8594 1012.7188,297.1563 1012.7188,297.4375 C1012.7188,297.7188 1012.8594,297.9688 1013.0781,298.1406 C1013.2344,298.25 1013.4219,298.2813 1013.8438,298.2813 L1014.0938,298.2813 L1014.0938,304.7969 L1013.8438,304.7969 C1013.4375,304.7969 1013.2813,304.8125 1013.125,304.9219 C1012.875,305.0938 1012.7188,305.3594 1012.7188,305.6563 C1012.7188,305.9219 1012.8594,306.1719 1013.0781,306.3281 C1013.2188,306.4531 1013.4531,306.5 1013.8438,306.5 L1021.8438,306.5 L1021.8438,303.9219 C1021.8438,303.4844 1021.8125,303.3438 1021.7344,303.1875 C1021.5625,302.9375 1021.2813,302.7813 1021,302.7813 C1020.7344,302.7813 1020.4688,302.8906 1020.2969,303.1406 C1020.1875,303.2969 1020.1563,303.4375 1020.1563,303.9219 L1020.1563,304.7969 L1015.7969,304.7969 L1015.7969,302.375 Z " fill="#000000"/><text fill="#000000" font-family="sans-serif" font-size="14" lengthAdjust="spacing" textLength="180" x="1031" y="306.3467">OrdemServi&#231;oOcorr&#234;ncia</text><line style="stroke:#181818;stroke-width:0.5;" x1="1003" x2="1213" y1="317.5" y2="317.5"/><ellipse cx="1013" cy="331.1484" fill="none" rx="3" ry="3" style="stroke:#038048;stroke-width:1.0;"/><text fill="#000000" font-family="sans-serif" font-size="14" lengthAdjust="spacing" textLength="182" x="1022" y="334.4951">OrdemServi&#231;oID &#171;PK, FK&#187;</text><ellipse cx="1013" cy="347.4453" fill="none" rx="3" ry="3" style="stroke:#038048;stroke-width:1.0;"/><text fill="#000000" font-family="sans-serif" font-size="14" lengthAdjust="spacing" textLength="158" x="1022" y="350.792">Ocorr&#234;nciaID &#171;PK, FK&#187;</text><line style="stroke:#181818;stroke-width:0.5;" x1="1003" x2="1213" y1="358.0938" y2="358.0938"/></g><!--class OrdemServi?oPe?a--><g id="elem_OrdemServi&#231;oPe&#231;a"><rect codeLine="84" fill="#F1F1F1" height="80.5938" id="OrdemServi&#231;oPe&#231;a" rx="2.5" ry="2.5" style="stroke:#181818;stroke-width:0.5;" width="212" x="1249" y="285.5"/><ellipse cx="1283.8" cy="301.5" fill="#ADD1B2" rx="11" ry="11" style="stroke:#181818;stroke-width:1.0;"/><path d="M1282.5969,302.375 L1284.05,302.375 L1284.05,302.4844 C1284.05,302.8906 1284.0813,303.0469 1284.1594,303.2031 C1284.3156,303.4531 1284.5969,303.6094 1284.8938,303.6094 C1285.1438,303.6094 1285.4094,303.4688 1285.5656,303.25 C1285.6906,303.0938 1285.7219,302.9375 1285.7219,302.4844 L1285.7219,300.5625 C1285.7219,300.4063 1285.7219,300.3594 1285.7063,300.2031 C1285.6438,299.7344 1285.3313,299.4219 1284.8781,299.4219 C1284.6281,299.4219 1284.3625,299.5625 1284.1906,299.7813 C1284.0813,299.9531 1284.05,300.1094 1284.05,300.5625 L1284.05,300.6875 L1282.5969,300.6875 L1282.5969,298.2813 L1286.5813,298.2813 L1286.5813,299.1406 C1286.5813,299.5469 1286.6125,299.7188 1286.6906,299.875 C1286.8625,300.125 1287.1438,300.2813 1287.425,300.2813 C1287.6906,300.2813 1287.9563,300.1406 1288.1281,299.9219 C1288.2375,299.75 1288.2688,299.6094 1288.2688,299.1406 L1288.2688,296.5938 L1280.6438,296.5938 C1280.2063,296.5938 1280.0813,296.6094 1279.925,296.7031 C1279.675,296.8594 1279.5188,297.1563 1279.5188,297.4375 C1279.5188,297.7188 1279.6594,297.9688 1279.8781,298.1406 C1280.0344,298.25 1280.2219,298.2813 1280.6438,298.2813 L1280.8938,298.2813 L1280.8938,304.7969 L1280.6438,304.7969 C1280.2375,304.7969 1280.0813,304.8125 1279.925,304.9219 C1279.675,305.0938 1279.5188,305.3594 1279.5188,305.6563 C1279.5188,305.9219 1279.6594,306.1719 1279.8781,306.3281 C1280.0188,306.4531 1280.2531,306.5 1280.6438,306.5 L1288.6438,306.5 L1288.6438,303.9219 C1288.6438,303.4844 1288.6125,303.3438 1288.5344,303.1875 C1288.3625,302.9375 1288.0813,302.7813 1287.8,302.7813 C1287.5344,302.7813 1287.2688,302.8906 1287.0969,303.1406 C1286.9875,303.2969 1286.9563,303.4375 1286.9563,303.9219 L1286.9563,304.7969 L1282.5969,304.7969 L1282.5969,302.375 Z " fill="#000000"/><text fill="#000000" font-family="sans-serif" font-size="14" lengthAdjust="spacing" textLength="136" x="1302.2" y="306.3467">OrdemServi&#231;oPe&#231;a</text><line style="stroke:#181818;stroke-width:0.5;" x1="1250" x2="1460" y1="317.5" y2="317.5"/><ellipse cx="1260" cy="331.1484" fill="none" rx="3" ry="3" style="stroke:#038048;stroke-width:1.0;"/><text fill="#000000" font-family="sans-serif" font-size="14" lengthAdjust="spacing" textLength="186" x="1269" y="334.4951">OrdemServi&#231;oID  &#171;PK, FK&#187;</text><ellipse cx="1260" cy="347.4453" fill="none" rx="3" ry="3" style="stroke:#038048;stroke-width:1.0;"/><text fill="#000000" font-family="sans-serif" font-size="14" lengthAdjust="spacing" textLength="114" x="1269" y="350.792">Pe&#231;aID &#171;PK, FK&#187;</text><line style="stroke:#181818;stroke-width:0.5;" x1="1250" x2="1460" y1="358.0938" y2="358.0938"/></g><!--link OrdemServi?o to Cliente--><g id="link_OrdemServi&#231;o_Cliente"><path codeLine="90" d="M519.224,107.677 C415.164,123.563 242.102,161.112 118,245 C112.106,248.984 106.4909,253.677 101.2121,258.758 " fill="none" id="OrdemServi&#231;o-Cliente" style="stroke:#181818;stroke-width:1.0;"/><text fill="#000000" font-family="sans-serif" font-size="13" lengthAdjust="spacing" textLength="23" x="488.4701" y="105.0544">0..*</text><text fill="#000000" font-family="sans-serif" font-size="13" lengthAdjust="spacing" textLength="8" x="109.054" y="244.3842">1</text></g><!--link OrdemServi?o to T?cnico--><g id="link_OrdemServi&#231;o_T&#233;cnico"><path codeLine="91" d="M519.387,126.576 C449.754,151.934 352.625,192.648 277,245 C269.938,249.888 262.97,255.46 256.273,261.335 " fill="none" id="OrdemServi&#231;o-T&#233;cnico" style="stroke:#181818;stroke-width:1.0;"/><text fill="#000000" font-family="sans-serif" font-size="13" lengthAdjust="spacing" textLength="23" x="488.6455" y="125.4004">0..*</text><text fill="#000000" font-family="sans-serif" font-size="13" lengthAdjust="spacing" textLength="8" x="254.2091" y="250.4896">1</text></g><!--link OrdemServi?o to OrdemServi?oEquipamento--><g id="link_OrdemServi&#231;o_OrdemServi&#231;oEquipamento"><path codeLine="92" d="M609,185.151 C609,219.737 609,257.673 609,285.298 " fill="none" id="OrdemServi&#231;o-OrdemServi&#231;oEquipamento" style="stroke:#181818;stroke-width:1.0;"/><text fill="#000000" font-family="sans-serif" font-size="13" lengthAdjust="spacing" textLength="8" x="600.6563" y="205.5134">1</text><text fill="#000000" font-family="sans-serif" font-size="13" lengthAdjust="spacing" textLength="23" x="584.0953" y="274.4261">0..*</text></g><!--link OrdemServi?oEquipamento to Equipamento--><g id="link_OrdemServi&#231;oEquipamento_Equipamento"><path codeLine="93" d="M609,366.586 C609,394.42 609,432.632 609,466.726 " fill="none" id="OrdemServi&#231;oEquipamento-Equipamento" style="stroke:#181818;stroke-width:1.0;"/><text fill="#000000" font-family="sans-serif" font-size="13" lengthAdjust="spacing" textLength="23" x="584.2391" y="386.0573">1..*</text><text fill="#000000" font-family="sans-serif" font-size="13" lengthAdjust="spacing" textLength="8" x="600.6438" y="455.8889">1</text></g><!--link OrdemServi?o to OrdemServi?oServi?o--><g id="link_OrdemServi&#231;o_OrdemServi&#231;oServi&#231;o"><path codeLine="94" d="M698.551,177.384 C739.257,213.924 785.6,255.523 818.692,285.227 " fill="none" id="OrdemServi&#231;o-OrdemServi&#231;oServi&#231;o" style="stroke:#181818;stroke-width:1.0;"/><text fill="#000000" font-family="sans-serif" font-size="13" lengthAdjust="spacing" textLength="8" x="706.5905" y="180.7899">1</text><text fill="#000000" font-family="sans-serif" font-size="13" lengthAdjust="spacing" textLength="23" x="786.4488" y="274.3433">0..*</text></g><!--link OrdemServi?oServi?o to Servi?o--><g id="link_OrdemServi&#231;oServi&#231;o_Servi&#231;o"><path codeLine="95" d="M863,366.586 C863,401.348 863,452.296 863,491.193 " fill="none" id="OrdemServi&#231;oServi&#231;o-Servi&#231;o" style="stroke:#181818;stroke-width:1.0;"/><text fill="#000000" font-family="sans-serif" font-size="13" lengthAdjust="spacing" textLength="23" x="838.2391" y="386.0573">1..*</text><text fill="#000000" font-family="sans-serif" font-size="13" lengthAdjust="spacing" textLength="8" x="854.5125" y="480.4191">1</text></g><!--link OrdemServi?o to OrdemServi?oOcorr?ncia--><g id="link_OrdemServi&#231;o_OrdemServi&#231;oOcorr&#234;ncia"><path codeLine="96" d="M698.581,126.513 C776.186,153.421 890.525,196.315 985,245 C1007.87,256.785 1031.84,271.724 1052.48,285.493 " fill="none" id="OrdemServi&#231;o-OrdemServi&#231;oOcorr&#234;ncia" style="stroke:#181818;stroke-width:1.0;"/><text fill="#000000" font-family="sans-serif" font-size="13" lengthAdjust="spacing" textLength="8" x="706.6231" y="125.5472">1</text><text fill="#000000" font-family="sans-serif" font-size="13" lengthAdjust="spacing" textLength="23" x="1017.9609" y="274.355">0..*</text></g><!--link OrdemServi?o to OrdemServi?oPe?a--><g id="link_OrdemServi&#231;o_OrdemServi&#231;oPe&#231;a"><path codeLine="97" d="M698.699,108.436 C822.557,126.404 1051.14,167.478 1232,245 C1256.58,255.538 1281.69,270.889 1302.76,285.333 " fill="none" id="OrdemServi&#231;o-OrdemServi&#231;oPe&#231;a" style="stroke:#181818;stroke-width:1.0;"/><text fill="#000000" font-family="sans-serif" font-size="13" lengthAdjust="spacing" textLength="8" x="706.4584" y="105.9016">1</text><text fill="#000000" font-family="sans-serif" font-size="13" lengthAdjust="spacing" textLength="23" x="1269.2031" y="274.4669">0..*</text></g><!--link OrdemServi?oOcorr?ncia to Ocorr?ncia--><g id="link_OrdemServi&#231;oOcorr&#234;ncia_Ocorr&#234;ncia"><path codeLine="98" d="M1108,366.586 C1108,401.348 1108,452.296 1108,491.193 " fill="none" id="OrdemServi&#231;oOcorr&#234;ncia-Ocorr&#234;ncia" style="stroke:#181818;stroke-width:1.0;"/><text fill="#000000" font-family="sans-serif" font-size="13" lengthAdjust="spacing" textLength="23" x="1083.2391" y="386.0573">1..*</text><text fill="#000000" font-family="sans-serif" font-size="13" lengthAdjust="spacing" textLength="8" x="1099.5125" y="480.4191">1</text></g><!--link OrdemServi?oPe?a to Pe?a--><g id="link_OrdemServi&#231;oPe&#231;a_Pe&#231;a"><path codeLine="99" d="M1355,366.586 C1355,401.348 1355,452.296 1355,491.193 " fill="none" id="OrdemServi&#231;oPe&#231;a-Pe&#231;a" style="stroke:#181818;stroke-width:1.0;"/><text fill="#000000" font-family="sans-serif" font-size="13" lengthAdjust="spacing" textLength="23" x="1330.2391" y="386.0573">1..*</text><text fill="#000000" font-family="sans-serif" font-size="13" lengthAdjust="spacing" textLength="8" x="1346.5125" y="480.4191">1</text></g><!--link OrdemServi?o to Finaliza??o--><g id="link_OrdemServi&#231;o_Finaliza&#231;&#227;o"><path codeLine="100" d="M519.303,185.151 C487.425,216.478 452.751,250.555 425.611,277.228 " fill="none" id="OrdemServi&#231;o-Finaliza&#231;&#227;o" style="stroke:#181818;stroke-width:1.0;"/><text fill="#000000" font-family="sans-serif" font-size="13" lengthAdjust="spacing" textLength="8" x="503.5437" y="188.9696">1</text><text fill="#000000" font-family="sans-serif" font-size="13" lengthAdjust="spacing" textLength="24" x="406.7594" y="266.3987">0..1</text></g><!--SRC=[ZPJDJiCm3CVlUOgeHmQ8tISan5RneOrAcxYRrY1BRJFI5Wac7WPnGF0QVJ7IfDsIhTbsQcB_yxDZEyMyfFATFyW4ipdADwf_15-n0RyTyz4ekh-yP9mF-1XAu0dogoUKPIL16oC97qAlGY4pxO_W1JBCIsEUbr1MXO9TfwICg8XXGnpmHVqRvnIBZIMa75BwWFgd_bwRFnb3as17s4tjEWhDTnRTwSLCPAWN2qpnMUHcCyc0KhFA4vIexcdXr_diyjUuIR74c5II2IJU00hPCIUl5IrDDNgm2rgQ8ar1ngQUKv5WAjfw9wBWLmd597AWmXZn6Kd1nXYd89N255cabIwQTPq3dMnfHIp9d6psZv0AQJ4UOY5b_PUhA_TXjaxFgQnWizNpWln6g56nIXAfiiE-OXnAofqI_vmwEZCUekb4_IN9BfGpzrR3LamTSPnjd5Ek1xFfzqRj-ZnqgoS7sVqE3zXgr4fVTH-xSM_qH_6xflMXjzbQkqDbxkybk3W_FmdusHaFXa7tidsQHjAzpctDq42CrDTAvdC4GpiDxubzORelwxMw0Vgr- -XMeuu_f3l0V1mt9My0qt9Nt0DkysZIK0ldpVq3]--></g></svg>